<svg width="200" height="200" viewBox="0 0 200 200" fill="none" xmlns="http://www.w3.org/2000/svg">
  <!-- 微信二维码样式的SVG占位符 -->
  <rect width="200" height="200" fill="white"/>
  
  <!-- 外边框 -->
  <rect x="10" y="10" width="180" height="180" fill="none" stroke="#07c160" stroke-width="2"/>
  
  <!-- 左上角定位点 -->
  <rect x="20" y="20" width="40" height="40" fill="#07c160"/>
  <rect x="30" y="30" width="20" height="20" fill="white"/>
  <rect x="35" y="35" width="10" height="10" fill="#07c160"/>
  
  <!-- 右上角定位点 -->
  <rect x="140" y="20" width="40" height="40" fill="#07c160"/>
  <rect x="150" y="30" width="20" height="20" fill="white"/>
  <rect x="155" y="35" width="10" height="10" fill="#07c160"/>
  
  <!-- 左下角定位点 -->
  <rect x="20" y="140" width="40" height="40" fill="#07c160"/>
  <rect x="30" y="150" width="20" height="20" fill="white"/>
  <rect x="35" y="155" width="10" height="10" fill="#07c160"/>
  
  <!-- 模拟数据点 -->
  <rect x="80" y="30" width="8" height="8" fill="#07c160"/>
  <rect x="90" y="30" width="8" height="8" fill="#07c160"/>
  <rect x="100" y="30" width="8" height="8" fill="#07c160"/>
  <rect x="110" y="30" width="8" height="8" fill="#07c160"/>
  
  <rect x="30" y="80" width="8" height="8" fill="#07c160"/>
  <rect x="40" y="80" width="8" height="8" fill="#07c160"/>
  <rect x="50" y="80" width="8" height="8" fill="#07c160"/>
  
  <rect x="80" y="80" width="8" height="8" fill="#07c160"/>
  <rect x="90" y="90" width="8" height="8" fill="#07c160"/>
  <rect x="100" y="80" width="8" height="8" fill="#07c160"/>
  <rect x="110" y="90" width="8" height="8" fill="#07c160"/>
  <rect x="120" y="80" width="8" height="8" fill="#07c160"/>
  
  <rect x="80" y="110" width="8" height="8" fill="#07c160"/>
  <rect x="90" y="120" width="8" height="8" fill="#07c160"/>
  <rect x="100" y="110" width="8" height="8" fill="#07c160"/>
  <rect x="110" y="120" width="8" height="8" fill="#07c160"/>
  <rect x="120" y="110" width="8" height="8" fill="#07c160"/>
  
  <rect x="140" y="80" width="8" height="8" fill="#07c160"/>
  <rect x="150" y="90" width="8" height="8" fill="#07c160"/>
  <rect x="160" y="80" width="8" height="8" fill="#07c160"/>
  <rect x="170" y="90" width="8" height="8" fill="#07c160"/>
  
  <rect x="80" y="140" width="8" height="8" fill="#07c160"/>
  <rect x="90" y="150" width="8" height="8" fill="#07c160"/>
  <rect x="100" y="140" width="8" height="8" fill="#07c160"/>
  <rect x="110" y="150" width="8" height="8" fill="#07c160"/>
  <rect x="120" y="140" width="8" height="8" fill="#07c160"/>
  <rect x="130" y="150" width="8" height="8" fill="#07c160"/>
  <rect x="140" y="140" width="8" height="8" fill="#07c160"/>
  <rect x="150" y="150" width="8" height="8" fill="#07c160"/>
  <rect x="160" y="140" width="8" height="8" fill="#07c160"/>
  <rect x="170" y="150" width="8" height="8" fill="#07c160"/>
  
  <!-- 微信 Logo 区域 -->
  <circle cx="100" cy="100" r="15" fill="#07c160"/>
  <text x="100" y="107" text-anchor="middle" fill="white" font-family="Arial" font-size="12" font-weight="bold">微信</text>
</svg>